<?xml version="1.0" encoding="UTF-8"?>
<svg id="Layer_2" data-name="Layer 2" xmlns="http://www.w3.org/2000/svg" viewBox="0 0 507.47 134.39">
  <defs>
    <style>
      .cls-1 {
        fill: #a7653b;
      }

      .cls-2 {
        fill: #d3dc2c;
      }

      .cls-3 {
        fill: #e3d5ba;
      }

      .cls-4 {
        fill: #74d900;
      }
    </style>
  </defs>
  <g id="Layer_2-2" data-name="Layer 2">
    <g>
      <path class="cls-2" d="M81.31,116.42c-.06.31-.12.46-.26.56-.14.1-.45.39-.45.39-.26.67-.52,1.33-1,2.56"/>
      <path class="cls-1" d="M84.76,112.2c2.45-3.58,1.28-1.81,3.34-5.33-2.26-1.36-3.74-1.51-5.54-2.5-3.08-1.7-6.24-3.26-9.3-4.99-3.49-1.96-4.08-5.98-1.23-8.78,3.74-3.66,8.38-5.77,13.55-6.04,15.67-.82,27.89,5.47,36.42,18.67,2.36,3.65,3.53,7.76,3.47,12.21-.1,7.69-4.18,13.94-11.35,16.77-9.12,3.61-18.12,2.47-26.7-1.57-14.45-6.81-22.43-18.48-24.29-34.32-.39-3.35.19-6.68,1.71-10.09,1.23.4,2.31.75,3.46,1.12-.65,4.44-1.73,8.65.07,13.46,2,7.7,5.14,13.98,11.22,19.1.15-.38,2.72-4.03,2.9-4.28.46-.62.69-1.2,1.14-1.8,0,0,.52-.74.52-.74.07-.04.61-.91.61-.91ZM116.42,127.07s2.9-2.35,3.85-3.52c2.6-4.69,2.66-11.32-.42-16.33-4.59-7.48-7-12.1-16.69-15.27-.26-.09-.45-.23-.67-.32-.95-.41-2.11-.17-2.74.65-.07.09-.13.19-.17.32-.18.58-.37,1.15-.59,1.72-.31.8-.55,1.84-.76,2.44-2.25,6.38-5.66,12.13-9.48,17.65-1.88,2.72-3.79,5.43-5.8,8.31,7.1,5.54,14.97,7.89,23.59,6.79,2.78-.36,4.51-.26,7.78-1.57,0,0,2.08-1.06,2.09-.88ZM92.66,88.44c-6.93-.75-13.08.67-18.42,6.53,5.02,2.74,9.37,5.58,14.53,7.66.45.31.89.61,1.79,1.23,1.99-4.88,3.84-9.42,5.86-14.35-.66-.33-1.36-.79-3.75-1.07Z"/>
      <path class="cls-4" d="M48.98,111.34c2.82-5.28,2.65-10.61.46-16.61-14.81,11.96-31.57,11.45-49.44,9.65,8.1-6.56,16.16-11.64,25.14-15.19,5.31-2.1,10.79-3.38,16.57-2.87,5.65.49,10.09,3.12,12.25,8.32,1.25,3,1.62,6.55,1.63,9.85,0,6.5-3.16,11.68-7.8,16.06-4.31,4.06-9.3,6.92-15.04,8.9-.94-3.78.61-7.06,1.63-10.33,2.25-7.2,6.12-13.36,12.4-17.76.58-.4,1.5-.31,2.29.18-.21,1.63-.21,2.8-.76,3.6-1.2,1.75-2.72,3.27-4.04,4.94-2.83,3.57-4.67,7.63-5.56,12.32.71-.64,1.43-1.28,2.34-2.01.51-.22.66-.45.61-.79-.03,0-.03.07.26.06.73-.34,1.17-.67,1.58-.99-.04,0-.04.07.22-.03.72-.67,1.19-1.24,1.62-1.8-.03,0-.03.06.24-.07,1.34-1.91,2.4-3.69,3.44-5.47-.03,0-.04.06-.04.06ZM33.61,91.07c-7.68,1.68-14.44,5.33-20.79,10.07,1.49-.12,2.98-.23,5.31-.09,9.84-.54,19.36-2,27.51-9.21-4.04-2.31-7.62-2.26-12.03-.77Z"/>
      <path class="cls-4" d="M51.81,17.1c1.8-5.75,3.52-11.12,5.44-17.1.81.83,1.28,1.13,1.49,1.56,7.45,15.17,12.35,31.01,12.07,48.11-.16,9.45-1.94,18.57-6.64,26.92-1.73,3.07-3.69,5.94-7.16,7.9-1.09-2.22-1.01-4.13.38-5.95-10.16-14.15-11.27-29.9-8.82-46.25.75-4.98,2.1-9.88,3.24-15.18ZM53.73,27.25c-.44,2.85-.94,5.69-1.32,8.55-1.42,10.57-.89,20.98,3.15,30.97,1.11,2.74,2.73,5.27,4.12,7.89.37-.06.74-.12,1.11-.19.31-1.21.63-2.43,1.56-3.93,2.63-5.92,3.8-12.22,4.03-18.6.18-5.01-.38-10.06-.8-15.07-.69-8.27-3.33-16.04-6.31-23.7-.19-.5-.55-.94-1.23-2.08-2.05,5.48-3.38,10.36-4.32,16.15Z"/>
      <path class="cls-4" d="M35.69,60.1c7.05,4.32,12.74,9.57,17.14,16.24,2.65,4.02,2.53,7.99.5,12.31-.71-.17-1.6-.13-1.79-.47-1.79-3.31-5.14-3.16-8.14-3.95-8.8-2.32-16.19-7.13-22.83-13.24-6.59-6.07-13.11-14.63-16.58-22.05,11.41,1.81,21.81,5.2,31.69,11.16ZM13.93,55.57c-.19.05-.37.1-.56.14.22.06.45.13.46.84,5.75,8.69,13.28,15.51,22.42,20.35,3.68,1.95,7.99,2.68,12.04,3.89.17.05.58-.66.8-1.68-.35-.81-.58-1.71-1.07-2.43-4.76-6.94-11.51-11.49-18.79-15.3-3.04-1.59-5.9-3.8-9.98-4.23-1.75-.4-3.5-.79-5.31-1.59Z"/>
      <path class="cls-4" d="M97.64,51.24c5.6-1.97,10.88-3.82,16.15-5.68.18.32.36.64.54.95-8,14.94-17.15,28.9-33.43,36.22-3.27,1.47-6.99,2.08-10.58,2.68-3.05.51-5.72-.63-7.58-3.26.06-.33,0-.77.18-.91,3.02-2.24,4.33-5.65,6.17-8.73,4.13-6.93,10.41-11.58,17.17-15.58,3.54-2.1,7.36-3.74,11.38-5.7ZM80.3,67.01s0-.06-.63,0c-6,4.82-9.18,9.77-9.06,14.29.44-.16.82-.31,1.99-.41,2.45-.71,5.05-1.1,7.33-2.18,10.06-4.77,17.26-12.71,23.35-21.8.69-1.03,1.21-2.17,2.33-4.2-6.31,2.14-11.46,4.13-16.65,7.73-2.91,2.19-5.81,4.38-8.66,6.57Z"/>
    </g>
    <g>
      <path class="cls-3" d="M144.29,60.17c0-2.45.23-6.1.34-8.55h-.23c-1.2,2.17-2.74,4.33-4.05,6.5l-3.76,6.16h20.98v7.41h-30.21v-6.84l13.97-21.21h12.08v36.14h-9.12v-19.61Z"/>
      <path class="cls-3" d="M168.91,67.7v-8.78h-6.84v-7.3l7.3-.34,1.25-8.55h8.09v8.55h11.29v7.64h-11.29v8.61c0,4.05,1.88,5.3,5.53,5.3,1.94,0,3.65-.4,5.19-.91l1.71,7.07c-2.51.68-5.59,1.48-9.46,1.48-9.35,0-12.77-5.13-12.77-12.77Z"/>
      <path class="cls-3" d="M193.99,51.28h9.46l1.14,11.97c.29,2.85.46,5.7.8,8.67h.17c.29-2.96.63-5.93,1.2-8.67l1.14-7.41h6.61l1.25,7.41c.51,2.85.91,5.7,1.31,8.67h.23c.34-2.96.4-5.81.63-8.67l.91-11.97h9.12l-3.76,28.5h-11.29l-.91-7.64c-.34-2.62-.63-5.3-.91-8.44h-.23c-.17,1.94-.34,4.28-.8,8.44l-.91,7.64h-11.06l-4.1-28.5Z"/>
      <path class="cls-3" d="M230.92,65.53c0-9.35,7.3-14.94,14.94-14.94,9.01,0,13.57,6.16,13.57,13.8,0,1.71-.29,3.42-.4,4.1h-20.69v-6.38h13.91l-1.37,1.71c0-3.76-1.48-5.81-4.67-5.81-3.76,0-5.81,2.39-5.81,7.52s2.62,7.53,7.87,7.53c2.28,0,4.33-.57,6.84-1.71l3.19,5.82c-3.42,2.17-7.87,3.31-11.4,3.31-9.01,0-15.96-5.47-15.96-14.94Z"/>
      <path class="cls-3" d="M265.92,51.28h7.98l.68,3.42h.23c2.28-2.17,5.36-4.1,9.52-4.1,6.33,0,9.06,4.56,9.06,11.63v17.56h-9.8v-16.3c0-3.19-.8-4.56-3.31-4.56-1.82,0-3.08.8-4.56,2.17v18.7h-9.81v-28.5Z"/>
      <path class="cls-3" d="M305.71,67.7v-8.78h-6.84v-7.3l7.3-.34,1.25-8.55h8.09v8.55h11.29v7.64h-11.29v8.61c0,4.05,1.88,5.3,5.53,5.3,1.94,0,3.65-.4,5.19-.91l1.71,7.07c-2.51.68-5.59,1.48-9.46,1.48-9.35,0-12.77-5.13-12.77-12.77Z"/>
      <path class="cls-3" d="M334.49,89.93l1.71-7.41c.74.23,1.42.34,2.05.34,3.02,0,4.56-1.14,5.3-2.85l.46-1.25-11.97-27.48h9.69l3.99,10.95c.97,2.74,1.77,5.59,2.57,8.67h.23c.68-2.91,1.6-5.82,2.45-8.67l3.42-10.95h9.24l-10.72,28.05c-3.02,7.7-6.38,11.17-13.85,11.17-1.77,0-3.25-.23-4.56-.57Z"/>
      <path class="cls-3" d="M374.56,73.06c0-4.05,2.96-7.41,7.41-7.41s7.41,3.36,7.41,7.41-2.96,7.41-7.41,7.41-7.41-3.31-7.41-7.41Z"/>
      <path class="cls-3" d="M401.47,65.53c0-9.35,5.93-14.94,11.91-14.94,3.02,0,4.96,1.03,6.67,2.85h.23l-.46-4.1v-9.24h9.8v39.68h-7.98l-.68-2.62h-.23c-2,1.94-4.79,3.31-7.35,3.31-7.24,0-11.91-5.7-11.91-14.94ZM419.82,70.44v-10.49c-1.14-1.03-2.39-1.37-3.76-1.37-2.39,0-4.56,1.82-4.56,6.84s1.65,7.07,4.45,7.07c1.6,0,2.79-.46,3.88-2.05Z"/>
      <path class="cls-3" d="M436.12,65.53c0-9.35,7.3-14.94,14.94-14.94,9.01,0,13.57,6.16,13.57,13.8,0,1.71-.29,3.42-.4,4.1h-20.69v-6.38h13.91l-1.37,1.71c0-3.76-1.48-5.81-4.67-5.81-3.76,0-5.81,2.39-5.81,7.52s2.62,7.53,7.87,7.53c2.28,0,4.33-.57,6.84-1.71l3.19,5.82c-3.42,2.17-7.87,3.31-11.4,3.31-9.01,0-15.96-5.47-15.96-14.94Z"/>
      <path class="cls-3" d="M468.84,51.28h9.81l3.71,12.43c.86,2.85,1.54,5.81,2.34,8.89h.23c.8-3.08,1.48-6.04,2.34-8.89l3.71-12.43h9.35l-9.92,28.5h-11.29l-10.26-28.5Z"/>
    </g>
  </g>
</svg>